<svg width="27" height="27" viewBox="0 0 27 27" fill="none" xmlns="http://www.w3.org/2000/svg">
<path d="M13.5 0C9.91958 0 6.4858 1.42232 3.95406 3.95406C1.42232 6.4858 0 9.91958 0 13.5C0 17.0804 1.42232 20.5142 3.95406 23.0459C6.4858 25.5777 9.91958 27 13.5 27C17.0804 27 20.5142 25.5777 23.0459 23.0459C25.5777 20.5142 27 17.0804 27 13.5C27 9.91958 25.5777 6.4858 23.0459 3.95406C20.5142 1.42232 17.0804 0 13.5 0ZM13.5 25.0714C10.4311 25.0714 7.48783 23.8523 5.31776 21.6822C3.1477 19.5122 1.92857 16.5689 1.92857 13.5C1.92857 10.4311 3.1477 7.48783 5.31776 5.31776C7.48783 3.1477 10.4311 1.92857 13.5 1.92857C16.5689 1.92857 19.5122 3.1477 21.6822 5.31776C23.8523 7.48783 25.0714 10.4311 25.0714 13.5C25.0714 16.5689 23.8523 19.5122 21.6822 21.6822C19.5122 23.8523 16.5689 25.0714 13.5 25.0714ZM12.0536 19.7679C12.0536 20.1515 12.206 20.5194 12.4772 20.7906C12.7485 21.0619 13.1164 21.2143 13.5 21.2143C13.8836 21.2143 14.2515 21.0619 14.5228 20.7906C14.794 20.5194 14.9464 20.1515 14.9464 19.7679C14.9464 19.3842 14.794 19.0163 14.5228 18.7451C14.2515 18.4738 13.8836 18.3214 13.5 18.3214C13.1164 18.3214 12.7485 18.4738 12.4772 18.7451C12.206 19.0163 12.0536 19.3842 12.0536 19.7679ZM13.5 5.78571C13.2443 5.78571 12.999 5.88731 12.8181 6.06815C12.6373 6.24899 12.5357 6.49426 12.5357 6.75V15.4286C12.5357 15.6843 12.6373 15.9296 12.8181 16.1104C12.999 16.2913 13.2443 16.3929 13.5 16.3929C13.7557 16.3929 14.001 16.2913 14.1819 16.1104C14.3627 15.9296 14.4643 15.6843 14.4643 15.4286V6.75C14.4643 6.49426 14.3627 6.24899 14.1819 6.06815C14.001 5.88731 13.7557 5.78571 13.5 5.78571Z" fill="white"/>
</svg>
