<svg width="25" height="27" viewBox="0 0 25 27" fill="none" xmlns="http://www.w3.org/2000/svg">
<path d="M19.21 3.5L22.1662 6.3875L14.5625 12.4375L13.1875 11.0625L19.1962 3.5H19.21ZM19.21 0.749999C18.8037 0.747314 18.4018 0.834704 18.0333 1.00588C17.6648 1.17706 17.3388 1.42778 17.0787 1.74L9.475 11.2687L14.3425 16.1362L23.885 8.54625C25.1225 7.50125 25.2187 5.6175 24.0637 4.4625L21.1625 1.56125C20.6125 1.01125 19.9112 0.749999 19.21 0.749999ZM8.5125 12.245L7.53625 13.2212C7.27845 13.4835 7.13399 13.8366 7.13399 14.2044C7.13399 14.5721 7.27845 14.9252 7.53625 15.1875L10.4375 18.075C10.7262 18.35 11.07 18.4737 11.4275 18.4737C11.785 18.4737 12.1287 18.35 12.4037 18.075L13.3662 17.1125L8.5125 12.245ZM4.25 18.625C3.49375 18.625 2.875 19.2437 2.875 20C2.875 20.7562 3.49375 21.375 4.25 21.375C5.00625 21.375 5.625 20.7562 5.625 20C5.625 19.2437 5.00625 18.625 4.25 18.625ZM8.375 20C7.61875 20 7 20.6187 7 21.375C7 22.1312 7.61875 22.75 8.375 22.75C9.13125 22.75 9.75 22.1312 9.75 21.375C9.75 20.6187 9.13125 20 8.375 20ZM1.5 22.75C0.74375 22.75 0.125 23.3687 0.125 24.125C0.125 24.8812 0.74375 25.5 1.5 25.5C2.25625 25.5 2.875 24.8812 2.875 24.125C2.875 23.3687 2.25625 22.75 1.5 22.75ZM5.625 24.125C4.86875 24.125 4.25 24.7437 4.25 25.5C4.25 26.2562 4.86875 26.875 5.625 26.875C6.38125 26.875 7 26.2562 7 25.5C7 24.7437 6.38125 24.125 5.625 24.125Z" fill="white"/>
</svg>
