<svg width="26" height="23" viewBox="0 0 26 23" fill="none" xmlns="http://www.w3.org/2000/svg">
<path d="M21.75 0.598755H4.25C3.25544 0.598755 2.30161 1.02427 1.59835 1.7817C0.895088 2.53913 0.5 3.56642 0.5 4.63759V18.1004C0.5 19.1715 0.895088 20.1988 1.59835 20.9563C2.30161 21.7137 3.25544 22.1392 4.25 22.1392H21.75C22.7446 22.1392 23.6984 21.7137 24.4017 20.9563C25.1049 20.1988 25.5 19.1715 25.5 18.1004V4.63759C25.5 3.56642 25.1049 2.53913 24.4017 1.7817C23.6984 1.02427 22.7446 0.598755 21.75 0.598755ZM20.9125 3.29131L13 9.68613L5.0875 3.29131H20.9125ZM21.75 19.4467H4.25C3.91848 19.4467 3.60054 19.3048 3.36612 19.0523C3.1317 18.7999 3 18.4574 3 18.1004V4.97416L12.25 12.446C12.4664 12.6208 12.7295 12.7153 13 12.7153C13.2705 12.7153 13.5336 12.6208 13.75 12.446L23 4.97416V18.1004C23 18.4574 22.8683 18.7999 22.6339 19.0523C22.3995 19.3048 22.0815 19.4467 21.75 19.4467Z" fill="white"/>
</svg>
