<svg width="27" height="28" viewBox="0 0 27 28" fill="none" xmlns="http://www.w3.org/2000/svg">
<path d="M8.90468 1.14261H2.01074C1.47746 1.14261 0.966017 1.35333 0.588931 1.7284C0.211845 2.10348 0 2.61219 0 3.14263V26C0 26.5304 0.211845 27.0391 0.588931 27.4142C0.966017 27.7893 1.47746 28 2.01074 28H8.90468C9.16874 28 9.43021 27.9483 9.67416 27.8478C9.91811 27.7472 10.1398 27.5999 10.3265 27.4142C10.5132 27.2285 10.6613 27.008 10.7624 26.7654C10.8634 26.5227 10.9154 26.2626 10.9154 26V3.14263C10.9154 2.87998 10.8634 2.61991 10.7624 2.37726C10.6613 2.1346 10.5132 1.91412 10.3265 1.7284C10.1398 1.54268 9.91811 1.39536 9.67416 1.29485C9.43021 1.19434 9.16874 1.14261 8.90468 1.14261ZM1.72349 7.42838H9.19193V21.7142H1.72349V7.42838ZM2.01074 2.85691H8.90468C8.98087 2.85691 9.05393 2.88702 9.1078 2.9406C9.16167 2.99418 9.19193 3.06685 9.19193 3.14263V5.71408H1.72349V3.14263C1.72349 3.06685 1.75375 2.99418 1.80762 2.9406C1.86149 2.88702 1.93455 2.85691 2.01074 2.85691ZM8.90468 26.2857H2.01074C1.93455 26.2857 1.86149 26.2556 1.80762 26.202C1.75375 26.1484 1.72349 26.0758 1.72349 26V23.4285H9.19193V26C9.19193 26.0758 9.16167 26.1484 9.1078 26.202C9.05393 26.2556 8.98087 26.2857 8.90468 26.2857ZM26.9582 24.1428L22.1913 1.59404C22.1375 1.33591 22.033 1.0909 21.8836 0.873104C21.7343 0.655311 21.5431 0.469032 21.3212 0.324982C21.0992 0.180932 20.8508 0.0819525 20.5902 0.0337363C20.3296 -0.0144799 20.0621 -0.0109816 19.8029 0.0440304L13.0798 1.48119C12.5595 1.59495 12.1053 1.90819 11.8157 2.35296C11.5261 2.79772 11.4245 3.33813 11.533 3.85692L16.2999 26.4014C16.3541 26.6604 16.4595 26.9062 16.6098 27.1245C16.7602 27.3427 16.9527 27.5291 17.176 27.6729C17.4992 27.8832 17.877 27.9954 18.2632 27.9957C18.4081 27.9965 18.5526 27.9811 18.6941 27.95L25.4171 26.5143C25.9355 26.3992 26.3876 26.0861 26.6759 25.6424C26.9642 25.1988 27.0656 24.6602 26.9582 24.1428ZM15.0647 12.2399L22.3508 10.6827L24.3787 20.2771L17.0912 21.8299L15.0647 12.2399ZM14.1125 7.73124L21.4 6.1698L21.996 8.99983L14.71 10.557L14.1125 7.73124ZM13.4432 3.15977L20.1648 1.72405C20.1849 1.72211 20.2051 1.72211 20.2251 1.72405C20.2788 1.72411 20.3313 1.74002 20.3759 1.76976C20.4089 1.79065 20.4373 1.81803 20.4593 1.85021C20.4812 1.88239 20.4964 1.9187 20.5038 1.95691L21.0423 4.50264L13.7577 6.04837L13.2206 3.50835C13.2038 3.43242 13.2178 3.35298 13.2594 3.28721C13.3011 3.22144 13.3671 3.17463 13.4432 3.15692V3.15977ZM25.0494 24.8457L18.3264 26.2857C18.2904 26.2936 18.2532 26.2943 18.2169 26.2877C18.1807 26.2811 18.1461 26.2673 18.1153 26.2471C18.0823 26.2262 18.0539 26.1989 18.032 26.1667C18.01 26.1345 17.9948 26.0982 17.9875 26.06L17.4489 23.5142L24.7335 21.9571L25.2778 24.49C25.2863 24.5281 25.287 24.5674 25.2801 24.6058C25.2732 24.6442 25.2587 24.6809 25.2375 24.7137C25.2162 24.7465 25.1887 24.7748 25.1564 24.7969C25.1242 24.8191 25.0878 24.8347 25.0494 24.8428V24.8457Z" fill="#FFF9F9"/>
</svg>
