<svg width="31" height="30" viewBox="0 0 31 30" fill="none" xmlns="http://www.w3.org/2000/svg">
<path d="M10.6339 17.8431C10.5618 20.3397 14.6799 22.4838 19.8329 22.6326C24.9858 22.7813 29.2207 20.8784 29.2928 18.3817C29.3649 15.8851 25.2468 13.7411 20.0938 13.5923C14.9409 13.4436 10.706 15.3465 10.6339 17.8431Z" stroke="#FF931E" stroke-width="2" stroke-linecap="round" stroke-linejoin="round"/>
<path d="M10.6339 17.8431L10.4599 23.8699C10.3879 26.365 14.5059 28.5106 19.6589 28.6594C24.8119 28.8081 29.0468 26.9037 29.1188 24.4086L29.2928 18.3817M1.65241 5.52012C1.60579 7.13531 3.34154 8.6783 6.20414 9.56921C9.06674 10.4601 12.6244 10.5628 15.5336 9.83852C18.4428 9.11423 20.2647 7.67394 20.3113 6.05875C20.3579 4.44356 18.6222 2.90057 15.7596 2.00967C12.897 1.11877 9.33936 1.01607 6.43014 1.74035C3.52091 2.46464 1.69904 3.90493 1.65241 5.52012Z" stroke="#FF931E" stroke-width="2" stroke-linecap="round" stroke-linejoin="round"/>
<path d="M1.65242 5.52014L1.21747 20.5872C1.17885 21.9252 2.35479 22.8066 4.2403 23.6904" stroke="#FF931E" stroke-width="2" stroke-linecap="round" stroke-linejoin="round"/>
<path d="M1.43494 13.0536C1.39632 14.3916 2.57227 15.273 4.45777 16.1568" stroke="#FF931E" stroke-width="2" stroke-linecap="round" stroke-linejoin="round"/>
</svg>
