<svg width="32" height="24" viewBox="0 0 32 24" fill="none" xmlns="http://www.w3.org/2000/svg">
<path d="M29.0929 8.62465C27.5837 7.77907 25.5553 7.1707 23.322 6.88465V5.86047C23.322 4.1693 22.0231 2.63721 19.661 1.54465C17.5132 0.548372 14.6712 0 11.661 0C8.65085 0 5.80881 0.548372 3.66102 1.54465C1.29898 2.63721 0 4.1693 0 5.86047V11.4419C0 13.133 1.29898 14.6651 3.66102 15.7577C5.08339 16.4163 6.80814 16.874 8.67797 17.1153V18.1395C8.67797 19.8307 9.97695 21.3628 12.339 22.4553C14.4868 23.4516 17.3288 24 20.339 24C23.3492 24 26.1912 23.4516 28.339 22.4553C30.6969 21.3628 32 19.8307 32 18.1395V12.5581C32 11.0721 30.9681 9.67535 29.0929 8.62465ZM28.3146 10.0953C29.642 10.8391 30.3729 11.7209 30.3729 12.5581C30.3729 14.5381 26.2522 16.7442 20.339 16.7442C19.3775 16.7448 18.4169 16.6823 17.4631 16.5572C18.2147 16.3497 18.9496 16.0824 19.661 15.7577C22.019 14.6651 23.322 13.133 23.322 11.4419V8.57163C25.2746 8.84093 27.0237 9.37116 28.3146 10.0953ZM13.3098 15.5693C12.7783 15.607 12.2251 15.6279 11.661 15.6279C10.9424 15.6279 10.2508 15.5944 9.58915 15.5344C9.57246 15.533 9.55568 15.533 9.53898 15.5344C9.05356 15.4884 8.58983 15.427 8.13559 15.353V11.4586C9.30293 11.6346 10.4812 11.7223 11.661 11.7209C12.8408 11.7223 14.0191 11.6346 15.1864 11.4586V15.3488C14.598 15.4451 13.9783 15.5191 13.3302 15.5665L13.3098 15.5693ZM21.6949 8.91488V11.4419C21.6949 12.773 19.8305 14.2046 16.8136 15.0014V11.1419C17.7906 10.9149 18.7442 10.5915 19.661 10.1763C20.3903 9.85036 21.0742 9.42619 21.6949 8.91488ZM11.661 1.67442C17.5742 1.67442 21.6949 3.88047 21.6949 5.86047C21.6949 7.84047 17.5742 10.0465 11.661 10.0465C5.7478 10.0465 1.62712 7.84047 1.62712 5.86047C1.62712 3.88047 5.7478 1.67442 11.661 1.67442ZM1.62712 11.4419V8.91488C2.24812 9.42423 2.93205 9.84652 3.66102 10.1707C4.57783 10.5859 5.53139 10.9093 6.50847 11.1363V14.9958C3.49153 14.2047 1.62712 12.773 1.62712 11.4419ZM10.3051 18.1395V17.2633C10.7525 17.2884 11.2041 17.3023 11.661 17.3023C12.1953 17.3023 12.7223 17.2851 13.242 17.2507C13.878 17.4868 14.5273 17.683 15.1864 17.8381V21.6991C12.1695 20.9023 10.3051 19.4707 10.3051 18.1395ZM16.8136 22.0465V18.1535C17.9808 18.3305 19.1591 18.4191 20.339 18.4186C21.5188 18.42 22.6971 18.3323 23.8644 18.1563V22.0465C21.528 22.4186 19.1499 22.4186 16.8136 22.0465ZM25.4915 21.6991V17.8395C26.4686 17.6125 27.4222 17.2892 28.339 16.874C29.0679 16.5498 29.7519 16.1275 30.3729 15.6181V18.1395C30.3729 19.4707 28.5085 20.9023 25.4915 21.6991Z" fill="#FFF9F9"/>
</svg>
