<svg width="32" height="32" viewBox="0 0 32 32" fill="none" xmlns="http://www.w3.org/2000/svg">
<path d="M23.183 7.16401C23.183 7.49137 23.0859 7.81139 22.9041 8.08358C22.7222 8.35577 22.4638 8.56792 22.1613 8.6932C21.8589 8.81847 21.5262 8.85125 21.2051 8.78739C20.8841 8.72352 20.5892 8.56588 20.3578 8.3344C20.1263 8.10292 19.9687 7.80799 19.9048 7.48692C19.841 7.16585 19.8738 6.83304 19.999 6.5306C20.1243 6.22816 20.3364 5.96965 20.6086 5.78778C20.8807 5.6059 21.2007 5.50883 21.528 5.50883C21.9669 5.50883 22.3879 5.68321 22.6983 5.99362C23.0086 6.30403 23.183 6.72503 23.183 7.16401ZM28.6816 18.3365C25.8185 21.9737 21.2549 23.9558 15.1095 24.2358L12.0753 31.3283C11.9904 31.5281 11.8484 31.6984 11.6671 31.8179C11.4858 31.9374 11.2733 32.0007 11.0562 32H10.9858C10.7585 31.9857 10.5411 31.9015 10.3635 31.7587C10.186 31.616 10.057 31.4218 9.99422 31.2027L7.9517 24.051L0.80497 22.0041C0.585369 21.9424 0.390284 21.8142 0.246563 21.637C0.102842 21.4599 0.0175508 21.2425 0.00242818 21.0149C-0.0126945 20.7873 0.0430948 20.5606 0.162118 20.3659C0.281141 20.1713 0.457546 20.0184 0.667055 19.9282L7.76 16.8937C8.03583 10.7461 10.0232 6.18194 13.6614 3.31985C19.6207 -1.36983 28.13 0.170872 29.7753 0.526736C30.1898 0.616309 30.5697 0.823442 30.8696 1.12335C31.1695 1.42325 31.3766 1.80322 31.4661 2.21778C31.8302 3.86193 33.3721 12.3806 28.6816 18.3448V18.3365ZM22.2921 20.4979C21.0166 20.012 19.9058 19.173 19.0896 18.0789C18.2734 16.9849 17.7855 15.6811 17.683 14.3199C16.3223 14.2175 15.0189 13.7298 13.9252 12.9137C12.8315 12.0976 11.9928 10.9869 11.5071 9.71161C10.5417 11.8992 10.0232 14.5544 9.94871 17.6592C9.94356 17.8706 9.87778 18.0761 9.75919 18.2512C9.64061 18.4263 9.47421 18.5636 9.27982 18.6468L4.39627 20.7365L9.1488 22.0979C9.32891 22.1494 9.49292 22.246 9.62539 22.3785C9.75785 22.511 9.85441 22.675 9.90595 22.8551L11.263 27.6082L13.3566 22.7241C13.4401 22.529 13.578 22.3622 13.7539 22.2435C13.9297 22.1249 14.1361 22.0595 14.3482 22.0551C17.4485 21.982 20.1034 21.4606 22.2921 20.4979ZM29.3161 2.68537C27.8404 2.36537 20.2137 0.976393 15.0322 5.05503C14.3792 5.5698 13.7857 6.15597 13.2628 6.80263C13.2099 7.52365 13.315 8.24754 13.5708 8.92371C13.8267 9.59988 14.2271 10.212 14.744 10.7174C15.261 11.2227 15.882 11.609 16.5638 11.8494C17.2456 12.0897 17.9716 12.1783 18.6911 12.1089C18.8529 12.0935 19.016 12.1141 19.1689 12.1691C19.3218 12.2241 19.4606 12.3122 19.5755 12.4271C19.6904 12.542 19.7785 12.6809 19.8335 12.8338C19.8885 12.9867 19.9091 13.1499 19.8937 13.3116C19.8243 14.0315 19.9129 14.7579 20.1533 15.4399C20.3938 16.122 20.7804 16.7433 21.2859 17.2603C21.7915 17.7774 22.4039 18.1778 23.0804 18.4335C23.7568 18.6892 24.4809 18.794 25.2021 18.7406C25.8477 18.2186 26.4329 17.626 26.9467 16.9737C31.0248 11.7916 29.636 4.16262 29.3161 2.68537Z" fill="#FFF9F9"/>
</svg>
