<svg width="31" height="31" viewBox="0 0 31 31" fill="none" xmlns="http://www.w3.org/2000/svg">
<path d="M22.4585 6.94013C22.4585 7.25727 22.3645 7.56728 22.1883 7.83097C22.0122 8.09465 21.7618 8.30017 21.4688 8.42154C21.1758 8.5429 20.8535 8.57465 20.5425 8.51278C20.2315 8.45091 19.9458 8.2982 19.7216 8.07395C19.4974 7.8497 19.3447 7.56399 19.2828 7.25295C19.221 6.94191 19.2527 6.61951 19.374 6.32652C19.4954 6.03353 19.7009 5.7831 19.9645 5.60691C20.2282 5.43072 20.5382 5.33668 20.8553 5.33668C21.2805 5.33668 21.6883 5.50561 21.9889 5.80632C22.2896 6.10703 22.4585 6.51487 22.4585 6.94013ZM27.7853 17.7635C25.0117 21.2871 20.5907 23.2072 14.6373 23.4784L11.698 30.3493C11.6157 30.5429 11.4781 30.7079 11.3025 30.8236C11.1269 30.9394 10.921 31.0007 10.7107 31H10.6425C10.4223 30.9862 10.2117 30.9045 10.0397 30.7663C9.86769 30.628 9.74271 30.4398 9.6819 30.2277L7.70321 23.2994L0.779814 21.3165C0.567077 21.2567 0.378088 21.1325 0.238858 20.9608C0.0996282 20.7892 0.0170024 20.5787 0.0023523 20.3582C-0.0122978 20.1377 0.0417481 19.918 0.157052 19.7295C0.272355 19.541 0.443248 19.3928 0.646209 19.3055L7.5175 16.3658C7.78471 10.4103 9.70996 5.98875 13.2344 3.21611C19.0075 -1.32702 27.2509 0.165532 28.8448 0.510275C29.2464 0.597049 29.6144 0.797709 29.9049 1.08824C30.1954 1.37877 30.3961 1.74687 30.4828 2.14847C30.8355 3.74124 32.3292 11.9937 27.7853 17.7715V17.7635ZM21.5954 19.8573C20.3598 19.3866 19.2838 18.5738 18.4931 17.514C17.7024 16.4541 17.2297 15.191 17.1304 13.8724C15.8122 13.7732 14.5495 13.3007 13.49 12.5101C12.4305 11.7196 11.618 10.6436 11.1475 9.40812C10.2123 11.5274 9.70996 14.0996 9.63781 17.1074C9.63282 17.3122 9.5691 17.5112 9.45422 17.6809C9.33934 17.8505 9.17815 17.9835 8.98983 18.0641L4.25888 20.0885L8.8629 21.4073C9.03738 21.4573 9.19627 21.5508 9.32459 21.6792C9.45292 21.8075 9.54646 21.9664 9.59639 22.1409L10.9111 26.7455L12.9392 22.014C13.0201 21.825 13.1537 21.6634 13.3241 21.5484C13.4944 21.4335 13.6943 21.3701 13.8998 21.3659C16.9032 21.2951 19.4751 20.79 21.5954 19.8573ZM28.3999 2.60145C26.9704 2.29145 19.582 0.945881 14.5625 4.89706C13.9298 5.39574 13.3548 5.9636 12.8483 6.59005C12.797 7.28854 12.8989 7.9898 13.1467 8.64484C13.3946 9.29988 13.7825 9.89289 14.2833 10.3824C14.7841 10.872 15.3857 11.2462 16.0462 11.4791C16.7066 11.7119 17.41 11.7977 18.107 11.7305C18.2637 11.7156 18.4218 11.7355 18.5699 11.7888C18.718 11.8421 18.8525 11.9275 18.9638 12.0388C19.0751 12.1501 19.1604 12.2846 19.2137 12.4327C19.267 12.5809 19.2869 12.7389 19.272 12.8956C19.2048 13.593 19.2906 14.2967 19.5236 14.9574C19.7565 15.6182 20.131 16.22 20.6208 16.7209C21.1105 17.2219 21.7038 17.6097 22.3591 17.8574C23.0144 18.1051 23.7159 18.2067 24.4145 18.155C25.04 17.6493 25.6069 17.0752 26.1046 16.4433C30.0553 11.4231 28.7099 4.03253 28.3999 2.60145Z" fill="#4D5C5F"/>
</svg>
