<svg width="24" height="24" viewBox="0 0 24 24" fill="none" xmlns="http://www.w3.org/2000/svg">
<path fill-rule="evenodd" clip-rule="evenodd" d="M3.16343 1.13605C4.60598 -0.375831 6.98139 -0.10719 8.18925 1.59462L9.68514 3.69876C10.669 5.0832 10.5813 7.01741 9.4137 8.24066L9.13159 8.53804C9.09974 8.6629 9.09649 8.79394 9.12211 8.92038C9.19678 9.43018 9.60098 10.5097 11.2936 12.284C12.9863 14.0583 14.0175 14.4831 14.5083 14.5631C14.6318 14.5908 14.7598 14.5869 14.8816 14.5518L15.3653 14.0445C16.4036 12.9575 17.9967 12.7538 19.2816 13.4898L21.5456 14.7892C23.486 15.8988 23.9755 18.6777 22.3872 20.3432L20.7028 22.1075C20.1718 22.6635 19.4582 23.1271 18.5882 23.2133C16.4427 23.4245 11.4442 23.1546 6.18959 17.6481C1.28586 12.5077 0.344707 8.0245 0.224988 5.8154C0.165721 4.69835 0.665933 3.75374 1.30364 3.08651L3.16343 1.13605ZM6.76685 2.71791C6.16588 1.872 5.04693 1.80453 4.41633 2.46551L2.55536 4.41472C2.1642 4.82455 1.97691 5.27687 2.00062 5.70919C2.09545 7.46473 2.85406 11.5093 7.44368 16.3199C12.2585 21.3653 16.7047 21.5165 18.4234 21.3466C18.7743 21.3128 19.1228 21.1204 19.4487 20.7793L21.1319 19.0138C21.817 18.2966 21.6665 16.9896 20.6969 16.4348L18.4329 15.1366C17.8071 14.7793 17.0745 14.8967 16.6193 15.374L16.08 15.94L15.4518 15.2753C16.08 15.94 16.0788 15.9413 16.0777 15.9413L16.0765 15.9438L16.0729 15.9475L16.0646 15.955L16.0468 15.9725C15.9964 16.021 15.9425 16.0653 15.8856 16.105C15.7908 16.1712 15.6652 16.2449 15.5075 16.3061C15.1875 16.4323 14.7631 16.4998 14.2392 16.4148C13.2115 16.2487 11.8496 15.5102 10.0396 13.6135C8.23074 11.7167 7.52428 10.2898 7.36544 9.20777C7.28365 8.65549 7.34885 8.20817 7.46975 7.87081C7.5368 7.68122 7.63202 7.50408 7.75186 7.34603L7.78979 7.30229L7.80639 7.28355L7.8135 7.27605L7.81706 7.27231L7.81943 7.26981L8.1608 6.91245C8.66813 6.37892 8.73925 5.49553 8.26156 4.82205L6.76685 2.71791Z" fill="white"/>
</svg>
