<svg width="26" height="26" viewBox="0 0 26 26" fill="none" xmlns="http://www.w3.org/2000/svg">
<path d="M24.116 12.5582C24.1161 10.1432 23.3596 7.78884 21.9529 5.82579C20.5463 3.86275 18.56 2.38964 16.2732 1.61337C13.9863 0.837095 11.5137 0.796659 9.20272 1.49774C6.89171 2.19881 4.85835 3.60619 3.38824 5.52219C1.91812 7.43819 1.0851 9.76656 1.00618 12.1803C0.927252 14.594 1.60639 16.9718 2.9482 18.9798C4.29001 20.9877 6.22708 22.5249 8.48736 23.3755C10.7476 24.226 13.2176 24.3472 15.5503 23.722" fill="#ACACAC" fill-opacity="0.32"/>
<path d="M24.116 12.5582C24.1161 10.1432 23.3596 7.78884 21.9529 5.82579C20.5463 3.86275 18.56 2.38964 16.2732 1.61337C13.9863 0.837095 11.5137 0.796659 9.20272 1.49774C6.89171 2.19882 4.85835 3.60619 3.38824 5.52219C1.91812 7.43819 1.0851 9.76656 1.00618 12.1803C0.927252 14.594 1.60639 16.9718 2.9482 18.9798C4.29001 20.9877 6.22708 22.5249 8.48736 23.3755C10.7476 24.226 13.2176 24.3472 15.5502 23.722" stroke="white" stroke-width="2" stroke-linecap="round"/>
<path d="M12.5583 17.695C15.3953 17.695 17.6952 15.3951 17.6952 12.5581C17.6952 9.72107 15.3953 7.4212 12.5583 7.4212C9.72125 7.4212 7.42139 9.72107 7.42139 12.5581C7.42139 15.3951 9.72125 17.695 12.5583 17.695Z" fill="#ACACAC" fill-opacity="0.32" stroke="white" stroke-width="2"/>
<path d="M17.6953 8.70544V14.4844C17.6953 15.3359 18.0336 16.1526 18.6357 16.7547C19.2378 17.3568 20.0544 17.695 20.9059 17.695C21.7574 17.695 22.574 17.3568 23.1761 16.7547C23.7782 16.1526 24.1164 15.3359 24.1164 14.4844V12.5581" fill="#ACACAC" fill-opacity="0.32"/>
<path d="M17.6953 8.70544V14.4844C17.6953 15.3359 18.0336 16.1526 18.6357 16.7547C19.2378 17.3568 20.0544 17.695 20.9059 17.695C21.7574 17.695 22.574 17.3568 23.1761 16.7547C23.7782 16.1526 24.1164 15.3359 24.1164 14.4844V12.5581" stroke="white" stroke-width="2" stroke-linecap="round"/>
</svg>
